<svg width="800" height="800" viewBox="-105 -105 210 210" xmlns="http://www.w3.org/2000/svg" xmlns:xlink="http://www.w3.org/1999/xlink"><defs><clipPath><circle r="100"/></clipPath><radialGradient id="a" cx=".4" cy=".3" r=".8"><stop offset="0" stop-color="#fff"/><stop offset=".4" stop-color="#fff"/><stop offset=".8" stop-color="#eee"/></radialGradient><radialGradient id="c" cx=".5" cy=".5" r=".5"><stop offset="0" stop-color="#fff" stop-opacity="0"/><stop offset=".8" stop-color="#fff" stop-opacity="0"/><stop offset=".99" stop-opacity=".3"/><stop offset="1"/></radialGradient><g id="b"><path d="M6-32q20 4 40 13 11-16 18-28-14-21-27-29-20 1-36 8 3 17 5 36"/><path d="M-26-2q-19-6-36-9-12 16-14 33 7 18 26 32 18-7 33-15-6-24-9-41"/><path d="M-95 22q-7-10-7-30v88h17q-10-35-10-58"/><path d="M55 24q-14 17-31 28 4 13 7 27 24-1 37-12 10-17 12-32-15-7-25-11"/><path d="M0 120l-3-25q-22-2-39-13-8 2-18-1"/><path d="M-90-48q10-4 22-1 16-22 33-28 0-23-5-23h-60"/><path d="M100-55l-13 18q11 27 10 42l3 1"/><path d="M6-32q-24 20-32 30m72-17q8 24 9 43m9-71q13 3 23 10m-50-39q2-14-1-24m-35 32q-14-9-36-9m-27 66q-5-14-6-38m-8 71q-9 2-19 0m45 32q1 16 8 28m25-43q17 9 41 13m7 27q-11 13-34 16m71-28l12 13m0-45q10-10 17-30" fill="none"/></g></defs><circle r="100" fill="#fff"/><circle r="100" fill="url(#a)"/><use xlink:href="#b" stroke="#EEE" stroke-width="7"/><use xlink:href="#b" stroke="#DDD" stroke-width="4"/><use xlink:href="#b" stroke="#999" stroke-width="2"/><use xlink:href="#b" stroke="#000"/><circle r="100" fill="url(#c)"/></svg>